<svg width="32" height="32" viewBox="0 0 32 32" fill="none" xmlns="http://www.w3.org/2000/svg">
  <!-- Background circle with gradient -->
  <defs>
    <linearGradient id="bgGradient" x1="0%" y1="0%" x2="100%" y2="100%">
      <stop offset="0%" style="stop-color:#3B82F6;stop-opacity:1" />
      <stop offset="100%" style="stop-color:#1E40AF;stop-opacity:1" />
    </linearGradient>
    <linearGradient id="mapGradient" x1="0%" y1="0%" x2="100%" y2="100%">
      <stop offset="0%" style="stop-color:#10B981;stop-opacity:1" />
      <stop offset="100%" style="stop-color:#059669;stop-opacity:1" />
    </linearGradient>
    <linearGradient id="starGradient" x1="0%" y1="0%" x2="100%" y2="100%">
      <stop offset="0%" style="stop-color:#F59E0B;stop-opacity:1" />
      <stop offset="100%" style="stop-color:#D97706;stop-opacity:1" />
    </linearGradient>
  </defs>

  <!-- Main background circle -->
  <circle cx="16" cy="16" r="15" fill="url(#bgGradient)" stroke="#1E40AF" stroke-width="1"/>

  <!-- Map/globe representation -->
  <path d="M16 4 C 10 4, 6 8, 6 13 C 6 18, 10 22, 16 22 C 22 22, 26 18, 26 13 C 26 8, 22 4, 16 4 Z"
        fill="url(#mapGradient)" stroke="#059669" stroke-width="0.75"/>

  <!-- Map lines representing geography -->
  <path d="M8 10 Q 12 9, 16 10 Q 20 11, 24 10" stroke="#FFFFFF" stroke-width="0.75" fill="none" opacity="0.8"/>
  <path d="M9 14 Q 13 13, 16 14 Q 19 15, 23 14" stroke="#FFFFFF" stroke-width="0.75" fill="none" opacity="0.8"/>
  <path d="M10 18 Q 14 17, 16 18 Q 18 19, 22 18" stroke="#FFFFFF" stroke-width="0.75" fill="none" opacity="0.8"/>

  <!-- Vertical map lines -->
  <path d="M12 9 L 12 19" stroke="#FFFFFF" stroke-width="0.5" fill="none" opacity="0.6"/>
  <path d="M16 9 L 16 19" stroke="#FFFFFF" stroke-width="0.5" fill="none" opacity="0.6"/>
  <path d="M20 9 L 20 19" stroke="#FFFFFF" stroke-width="0.5" fill="none" opacity="0.6"/>

  <!-- Location pin representing Iran -->
  <circle cx="16" cy="15" r="1.5" fill="#EF4444" stroke="#DC2626" stroke-width="0.5"/>
  <circle cx="16" cy="15" r="0.75" fill="#FFFFFF"/>

  <!-- Compass rose elements -->
  <path d="M16 4 L 16 2" stroke="#F59E0B" stroke-width="1" stroke-linecap="round"/>
  <path d="M16 30 L 16 28" stroke="#F59E0B" stroke-width="1" stroke-linecap="round"/>
  <path d="M4 16 L 2 16" stroke="#F59E0B" stroke-width="1" stroke-linecap="round"/>
  <path d="M30 16 L 28 16" stroke="#F59E0B" stroke-width="1" stroke-linecap="round"/>

  <!-- Small decorative stars -->
  <path d="M10 6 L 11 7 L 12 6 L 11 5 Z" fill="url(#starGradient)"/>
  <path d="M22 6 L 23 7 L 24 6 L 23 5 Z" fill="url(#starGradient)"/>
  <path d="M10 26 L 11 27 L 12 26 L 11 25 Z" fill="url(#starGradient)"/>
  <path d="M22 26 L 23 27 L 24 26 L 23 25 Z" fill="url(#starGradient)"/>

  <!-- Center star representing Iran -->
  <path d="M16 11 L 16.75 12.5 L 18.5 12.5 L 17 13.5 L 17.75 15 L 16 14 L 14.25 15 L 15 13.5 L 13.5 12.5 L 15.25 12.5 Z"
        fill="url(#starGradient)"/>
</svg>
